<svg width="14" height="14" viewBox="0 0 14 14" fill="none" xmlns="http://www.w3.org/2000/svg">
<path d="M5.83329 10.4999C6.8687 10.4997 7.87426 10.1531 8.68988 9.51523L11.2542 12.0796L12.079 11.2547L9.51471 8.6904C10.1529 7.8747 10.4997 6.8689 10.5 5.83323C10.5 3.26015 8.40638 1.16656 5.83329 1.16656C3.26021 1.16656 1.16663 3.26015 1.16663 5.83323C1.16663 8.40631 3.26021 10.4999 5.83329 10.4999ZM5.83329 2.33323C7.76354 2.33323 9.33329 3.90298 9.33329 5.83323C9.33329 7.76348 7.76354 9.33323 5.83329 9.33323C3.90304 9.33323 2.33329 7.76348 2.33329 5.83323C2.33329 3.90298 3.90304 2.33323 5.83329 2.33323Z" fill="#0098A3"/>
</svg>
