<svg width="37" height="33" viewBox="0 0 37 33" fill="none" xmlns="http://www.w3.org/2000/svg">
<path fill-rule="evenodd" clip-rule="evenodd" d="M14.8042 0.282551C10.2358 1.38402 6.5894 4.95839 5.34056 9.55892C4.96364 10.9475 4.79408 11.126 3.68816 11.298C2.048 11.5531 1.77008 11.7488 1.08392 13.1302C0.66596 13.971 0.5 15.2857 0.5 17.7517C0.5 20.9581 0.56516 21.2721 1.43204 22.2563C2.34248 23.29 2.4368 23.3144 5.52776 23.3144C7.78388 23.3144 8.8106 23.1779 9.10544 22.8381C9.38768 22.5135 9.4874 20.6823 9.41972 17.078C9.32396 11.9985 9.28904 11.7811 8.52332 11.4603C7.8962 11.1972 7.77452 10.941 7.952 10.2567C8.67704 7.46499 10.404 5.27683 13.0593 3.78573C14.5807 2.93152 15.0375 2.85311 18.5 2.85311C21.9729 2.85311 22.4164 2.9298 23.9598 3.79639C26.2108 5.06052 28.1203 7.26381 28.7668 9.34433C29.0588 10.2831 29.2575 11.0638 29.2089 11.0789C29.16 11.094 28.796 11.2777 28.4 11.4874C27.7362 11.8385 27.6721 12.2777 27.5803 17.1152C27.4737 22.7443 27.6228 23.3144 29.2032 23.3144C29.988 23.3144 30.069 23.4248 29.8623 24.212C29.3594 26.1264 28.0555 28.2348 26.991 28.8548C25.4311 29.7633 22.3491 29.7424 21.38 28.8166C20.2647 27.7513 16.966 27.8434 15.7838 28.9731C14.6624 30.044 14.6624 31.0282 15.7838 32.099C16.9354 33.1995 20.1898 33.3215 21.1572 32.3009C21.5985 31.8349 22.4398 31.6124 24.2193 31.4907C25.7007 31.3896 27.1321 31.065 27.8312 30.6715C29.3119 29.8387 30.9747 27.4424 31.6796 25.1267C32.203 23.4066 32.2923 23.3144 33.4335 23.3144C34.3342 23.3144 34.8699 23.0489 35.568 22.2563C36.4341 21.2731 36.5 20.9564 36.5 17.772C36.5 12.9414 35.5827 11.2784 32.918 11.2784C32.031 11.2784 31.8938 11.1288 31.7329 9.98878C31.2505 6.57329 28.0278 2.65847 24.3878 1.06661C22.1317 0.0800015 17.2882 -0.316501 14.8042 0.282551Z" fill="#0098A3"/>
</svg>
