<svg width="17" height="17" viewBox="0 0 17 17" fill="none" xmlns="http://www.w3.org/2000/svg">
<path d="M7.08332 12.75C8.3406 12.7498 9.56164 12.3289 10.552 11.5544L13.6659 14.6682L14.6674 13.6666L11.5536 10.5528C12.3285 9.56228 12.7497 8.34095 12.75 7.08335C12.75 3.9589 10.2078 1.41669 7.08332 1.41669C3.95887 1.41669 1.41666 3.9589 1.41666 7.08335C1.41666 10.2078 3.95887 12.75 7.08332 12.75ZM7.08332 2.83335C9.4272 2.83335 11.3333 4.73948 11.3333 7.08335C11.3333 9.42723 9.4272 11.3334 7.08332 11.3334C4.73945 11.3334 2.83332 9.42723 2.83332 7.08335C2.83332 4.73948 4.73945 2.83335 7.08332 2.83335Z" fill="black"/>
</svg>
