<svg width="30" height="30" viewBox="0 0 30 30" fill="none" xmlns="http://www.w3.org/2000/svg">
<rect x="0.0254517" width="29.0064" height="29.0064" rx="14.5032" fill="black"/>
<path fill-rule="evenodd" clip-rule="evenodd" d="M15.453 10.2687C15.453 15.0622 14.4122 15.1958 11.7448 10.7449C10.2942 8.32401 10.2828 8.25548 11.2212 7.63477C11.7492 7.28554 12.9171 7 13.8169 7H15.453V10.2687ZM19.9874 12.1199C21.3658 13.2282 21.1073 14.3154 19.3347 14.8641C17.3872 15.4673 15.9474 15.4831 15.9474 14.901C15.9474 14.2271 18.1076 11.4047 18.6277 11.3981C18.8784 11.3955 19.49 11.7201 19.9874 12.1199ZM12.1789 14.2539C14.5981 15.1523 14.4498 16.0133 11.773 16.612C10.5651 16.8826 9.45264 17.1036 9.30085 17.1036C9.14955 17.1036 9.02545 16.3129 9.02545 15.3464C9.02545 13.3596 9.41012 13.2265 12.1789 14.2539ZM19.3347 16.7074C20.1911 16.9727 20.8917 17.423 20.8917 17.7076C20.8917 18.5278 19.4188 20.1786 18.6875 20.1786C18.0423 20.1786 15.9474 17.473 15.9474 16.6393C15.9474 16.0858 17.4238 16.1156 19.3347 16.7074ZM15.0851 18.689C14.8973 21.348 14.7301 21.5329 13.0021 20.9979C12.174 20.7413 11.3601 20.3359 11.194 20.0973C10.8197 19.5592 13.9836 16.5909 14.6911 16.8159C14.9744 16.9059 15.1514 17.7489 15.0851 18.689Z" fill="white"/>
</svg>
