<svg width="30" height="30" viewBox="0 0 30 30" fill="none" xmlns="http://www.w3.org/2000/svg">
<rect x="0.00637817" width="29.0064" height="29.0064" rx="14.5032" fill="black"/>
<path d="M14.5987 9.97771C11.9971 9.97771 9.88991 12.1903 9.88991 14.922C9.88991 17.6537 11.9971 19.8662 14.5987 19.8662C16.8766 19.8662 18.7778 18.1666 19.2134 15.9108H15.5405C15.0196 15.9108 14.5987 15.4689 14.5987 14.922C14.5987 14.375 15.0196 13.9331 15.5405 13.9331H20.2493C20.7702 13.9331 21.1911 14.375 21.1911 14.922C21.1911 18.7445 18.2392 21.8439 14.5987 21.8439C10.9582 21.8439 8.00638 18.7445 8.00638 14.922C8.00638 11.0994 10.9582 8 14.5987 8C16.288 8 17.8272 8.66748 18.9927 9.7614C19.3811 10.126 19.4135 10.7502 19.0662 11.1582C18.719 11.5661 18.1245 11.6 17.736 11.2354C16.9031 10.4536 15.8054 9.97771 14.5987 9.97771Z" fill="white"/>
</svg>
