<svg width="44" height="45" viewBox="0 0 44 45" fill="none" xmlns="http://www.w3.org/2000/svg">
<path fill-rule="evenodd" clip-rule="evenodd" d="M17.8042 6.28255C13.2358 7.38402 9.5894 10.9584 8.34056 15.5589C7.96364 16.9475 7.79408 17.126 6.68816 17.298C5.048 17.5531 4.77008 17.7488 4.08392 19.1302C3.66596 19.971 3.5 21.2857 3.5 23.7517C3.5 26.9581 3.56516 27.2721 4.43204 28.2563C5.34248 29.29 5.4368 29.3144 8.52776 29.3144C10.7839 29.3144 11.8106 29.1779 12.1054 28.8381C12.3877 28.5135 12.4874 26.6823 12.4197 23.078C12.324 17.9985 12.289 17.7811 11.5233 17.4603C10.8962 17.1972 10.7745 16.941 10.952 16.2567C11.677 13.465 13.404 11.2768 16.0593 9.78573C17.5807 8.93152 18.0375 8.85311 21.5 8.85311C24.9729 8.85311 25.4164 8.9298 26.9598 9.79639C29.2108 11.0605 31.1203 13.2638 31.7668 15.3443C32.0588 16.2831 32.2575 17.0638 32.2089 17.0789C32.16 17.094 31.796 17.2777 31.4 17.4874C30.7362 17.8385 30.6721 18.2777 30.5803 23.1152C30.4737 28.7443 30.6228 29.3144 32.2032 29.3144C32.988 29.3144 33.069 29.4248 32.8623 30.212C32.3594 32.1264 31.0555 34.2348 29.991 34.8548C28.4311 35.7633 25.3491 35.7424 24.38 34.8166C23.2647 33.7513 19.966 33.8434 18.7838 34.9731C17.6624 36.044 17.6624 37.0282 18.7838 38.099C19.9354 39.1995 23.1898 39.3215 24.1572 38.3009C24.5985 37.8349 25.4398 37.6124 27.2193 37.4907C28.7007 37.3896 30.1321 37.065 30.8312 36.6715C32.3119 35.8387 33.9747 33.4424 34.6796 31.1267C35.203 29.4066 35.2923 29.3144 36.4335 29.3144C37.3342 29.3144 37.8699 29.0489 38.568 28.2563C39.4341 27.2731 39.5 26.9564 39.5 23.772C39.5 18.9414 38.5827 17.2784 35.918 17.2784C35.031 17.2784 34.8938 17.1288 34.7329 15.9888C34.2505 12.5733 31.0278 8.65847 27.3878 7.06661C25.1317 6.08 20.2882 5.6835 17.8042 6.28255Z" fill="#0098A3"/>
</svg>
