<svg width="30" height="30" viewBox="0 0 30 30" fill="none" xmlns="http://www.w3.org/2000/svg">
<rect x="0.019104" width="29.0064" height="29.0064" rx="14.5032" fill="black"/>
<path d="M15.2228 11.8027C13.8997 11.8027 12.82 12.8824 12.82 14.2055C12.82 15.5286 13.8997 16.6084 15.2228 16.6084C16.5459 16.6084 17.6257 15.5286 17.6257 14.2055C17.6257 12.8824 16.5459 11.8027 15.2228 11.8027ZM22.4296 14.2055C22.4296 13.2105 22.4386 12.2245 22.3827 11.2312C22.3269 10.0776 22.0637 9.05369 21.2201 8.21008C20.3746 7.36466 19.3526 7.10328 18.1989 7.0474C17.2039 6.99152 16.2179 7.00054 15.2246 7.00054C14.2296 7.00054 13.2436 6.99152 12.2503 7.0474C11.0967 7.10328 10.0728 7.36646 9.22918 8.21008C8.38376 9.0555 8.12239 10.0776 8.06651 11.2312C8.01063 12.2263 8.01964 13.2123 8.01964 14.2055C8.01964 15.1987 8.01063 16.1866 8.06651 17.1798C8.12239 18.3335 8.38557 19.3573 9.22918 20.201C10.0746 21.0464 11.0967 21.3078 12.2503 21.3636C13.2454 21.4195 14.2314 21.4105 15.2246 21.4105C16.2197 21.4105 17.2057 21.4195 18.1989 21.3636C19.3526 21.3078 20.3764 21.0446 21.2201 20.201C22.0655 19.3555 22.3269 18.3335 22.3827 17.1798C22.4404 16.1866 22.4296 15.2006 22.4296 14.2055ZM15.2228 17.9026C13.1769 17.9026 11.5257 16.2515 11.5257 14.2055C11.5257 12.1596 13.1769 10.5084 15.2228 10.5084C17.2688 10.5084 18.9199 12.1596 18.9199 14.2055C18.9199 16.2515 17.2688 17.9026 15.2228 17.9026ZM19.0714 11.2204C18.5937 11.2204 18.2079 10.8347 18.2079 10.357C18.2079 9.87928 18.5937 9.49353 19.0714 9.49353C19.5491 9.49353 19.9348 9.87928 19.9348 10.357C19.935 10.4704 19.9127 10.5827 19.8694 10.6876C19.826 10.7924 19.7624 10.8876 19.6822 10.9678C19.602 11.048 19.5068 11.1116 19.402 11.155C19.2971 11.1983 19.1848 11.2206 19.0714 11.2204Z" fill="white"/>
</svg>
