<svg width="16" height="16" viewBox="0 0 16 16" fill="none" xmlns="http://www.w3.org/2000/svg">
<path d="M5.83329 11.4999C6.8687 11.4997 7.87426 11.1531 8.68988 10.5152L11.2542 13.0796L12.079 12.2547L9.51471 9.6904C10.1529 8.8747 10.4997 7.8689 10.5 6.83323C10.5 4.26015 8.40638 2.16656 5.83329 2.16656C3.26021 2.16656 1.16663 4.26015 1.16663 6.83323C1.16663 9.40631 3.26021 11.4999 5.83329 11.4999ZM5.83329 3.33323C7.76354 3.33323 9.33329 4.90298 9.33329 6.83323C9.33329 8.76348 7.76354 10.3332 5.83329 10.3332C3.90304 10.3332 2.33329 8.76348 2.33329 6.83323C2.33329 4.90298 3.90304 3.33323 5.83329 3.33323Z" fill="#0098A3"/>
</svg>
