<svg width="184" height="190" viewBox="0 0 184 190" fill="none" xmlns="http://www.w3.org/2000/svg">
<g filter="url(#filter0_dd_1_58)">
<path d="M20 0H164V99C164 138.764 131.765 171 92 171C52.2355 171 20 138.764 20 99V0Z" fill="#219AFA"/>
<path d="M124.04 55.3459C119.711 56.1229 114.494 58.8978 111.275 62.1168C102.062 71.3295 101.951 86.6471 110.998 95.7489C120.266 105.073 135.972 105.35 145.185 96.3594L147.571 93.973L144.241 90.6985L140.967 87.3686L138.414 89.5886C135.473 92.197 132.809 93.085 128.147 93.085C124.04 93.085 121.376 91.864 118.546 88.7561C116.104 86.0367 115.105 83.2062 115.105 78.9328C115.105 74.5484 116.048 71.9955 118.601 69.3871C121.709 66.1127 124.317 65.0582 129.201 65.0582C132.809 65.0582 133.752 65.2802 136.305 66.7231C137.97 67.6111 139.746 68.8876 140.246 69.6091L141.244 70.83L143.131 68.7766C144.186 67.6666 145.629 66.0572 146.35 65.1692L147.682 63.6707L146.35 62.2278C141.355 56.8444 131.921 53.9585 124.04 55.3459Z" fill="white"/>
<path d="M35.9999 79.1736V102.483H41.2723H46.5447V92.7708V83.0585H66.039L65.9965 74.6226L48.3761 74.4562L46.5447 74.1232V65.0215V55.8642H41.2723H35.9999V79.1736Z" fill="white"/>
<path d="M66.6902 83.0597C87.3912 83.0597 90.4436 83.3372 91.4981 85.2797C92.6081 87.2776 92.1641 90.552 90.6101 91.995C89.2782 93.216 88.6677 93.3269 82.5628 93.5489L75.9585 93.7154V90.33V86.9446H70.9636H65.9688V94.7699V102.595L79.1774 102.318C93.6071 102.04 95.161 101.763 98.6574 98.7658C101.599 96.2684 102.82 92.994 102.487 88.4431C102.209 84.0587 100.378 81.2838 96.5485 79.5078L93.9401 78.2868L96.1045 76.7884C100.988 73.292 101.71 66.2991 97.7695 60.9713C94.828 56.9754 89.9441 55.8654 75.8475 55.8654H65.9688V63.3577V70.85H70.9636H75.9585V67.7421V64.6342L81.5084 64.8562C86.3367 65.0227 87.2247 65.2447 88.2792 66.2991C89.9996 68.0196 89.9996 71.516 88.2792 73.181C87.0597 74.4559 86.8921 74.4574 68.6429 74.6233L68.5772 74.6239H65.9688V83.0597H66.6902Z" fill="white"/>
<path d="M38.9096 114.577C38.4902 114.577 38.1022 114.511 37.7457 114.378C37.3945 114.241 37.0878 114.049 36.8257 113.805C36.5688 113.555 36.3669 113.264 36.2202 112.932C36.0734 112.601 36 112.236 36 111.839C36 111.441 36.0734 111.076 36.2202 110.745C36.3669 110.413 36.5714 110.125 36.8335 109.88C37.0957 109.63 37.4023 109.439 37.7536 109.307C38.1101 109.169 38.498 109.1 38.9174 109.1C39.3421 109.1 39.7327 109.171 40.0891 109.314C40.4509 109.452 40.7576 109.658 41.0092 109.934L40.4981 110.416C40.2884 110.202 40.0525 110.043 39.7903 109.942C39.5282 109.834 39.2477 109.781 38.9489 109.781C38.6396 109.781 38.3512 109.832 38.0839 109.934C37.8218 110.036 37.5937 110.179 37.3997 110.362C37.2058 110.546 37.0537 110.765 36.9436 111.02C36.8388 111.27 36.7864 111.543 36.7864 111.839C36.7864 112.134 36.8388 112.41 36.9436 112.665C37.0537 112.915 37.2058 113.131 37.3997 113.315C37.5937 113.499 37.8218 113.641 38.0839 113.743C38.3512 113.845 38.6396 113.896 38.9489 113.896C39.2477 113.896 39.5282 113.845 39.7903 113.743C40.0525 113.636 40.2884 113.473 40.4981 113.254L41.0092 113.736C40.7576 114.011 40.4509 114.22 40.0891 114.363C39.7327 114.506 39.3395 114.577 38.9096 114.577Z" fill="white"/>
<path d="M44.5008 114.577C44.0814 114.577 43.6908 114.508 43.3291 114.371C42.9726 114.233 42.6633 114.042 42.4012 113.797C42.139 113.547 41.9346 113.256 41.7878 112.925C41.641 112.593 41.5676 112.231 41.5676 111.839C41.5676 111.446 41.641 111.084 41.7878 110.752C41.9346 110.421 42.139 110.133 42.4012 109.888C42.6633 109.638 42.9726 109.444 43.3291 109.307C43.6856 109.169 44.0762 109.1 44.5008 109.1C44.9202 109.1 45.3055 109.169 45.6568 109.307C46.0133 109.439 46.3226 109.63 46.5847 109.88C46.8521 110.125 47.0565 110.413 47.1981 110.745C47.3449 111.076 47.4183 111.441 47.4183 111.839C47.4183 112.236 47.3449 112.601 47.1981 112.932C47.0565 113.264 46.8521 113.555 46.5847 113.805C46.3226 114.049 46.0133 114.241 45.6568 114.378C45.3055 114.511 44.9202 114.577 44.5008 114.577ZM44.5008 113.896C44.8049 113.896 45.0853 113.845 45.3422 113.743C45.6044 113.641 45.8298 113.499 46.0185 113.315C46.2125 113.126 46.3619 112.907 46.4668 112.657C46.5769 112.407 46.6319 112.134 46.6319 111.839C46.6319 111.543 46.5769 111.27 46.4668 111.02C46.3619 110.77 46.2125 110.553 46.0185 110.37C45.8298 110.181 45.6044 110.036 45.3422 109.934C45.0853 109.832 44.8049 109.781 44.5008 109.781C44.1915 109.781 43.9058 109.832 43.6437 109.934C43.3868 110.036 43.1613 110.181 42.9674 110.37C42.7734 110.553 42.6214 110.77 42.5113 111.02C42.4064 111.27 42.354 111.543 42.354 111.839C42.354 112.134 42.4064 112.407 42.5113 112.657C42.6214 112.907 42.7734 113.126 42.9674 113.315C43.1613 113.499 43.3868 113.641 43.6437 113.743C43.9058 113.845 44.1915 113.896 44.5008 113.896Z" fill="white"/>
<path d="M48.6202 114.516V109.161H49.265L51.7343 113.208H51.3883L53.826 109.161H54.4709L54.4787 114.516H53.7238L53.716 110.316H53.8968L51.7264 113.866H51.3647L49.1785 110.316H49.3751V114.516H48.6202Z" fill="white"/>
<path d="M56.1308 114.516V109.161H58.2776C58.7599 109.161 59.1714 109.235 59.5122 109.383C59.853 109.531 60.1151 109.745 60.2986 110.026C60.4821 110.306 60.5738 110.64 60.5738 111.028C60.5738 111.415 60.4821 111.749 60.2986 112.03C60.1151 112.305 59.853 112.519 59.5122 112.672C59.1714 112.82 58.7599 112.894 58.2776 112.894H56.5633L56.9171 112.535V114.516H56.1308ZM56.9171 112.611L56.5633 112.229H58.254C58.7573 112.229 59.1374 112.124 59.3942 111.915C59.6564 111.706 59.7874 111.41 59.7874 111.028C59.7874 110.645 59.6564 110.349 59.3942 110.14C59.1374 109.931 58.7573 109.827 58.254 109.827H56.5633L56.9171 109.444V112.611Z" fill="white"/>
<path d="M64.025 114.577C63.3015 114.577 62.7327 114.376 62.3185 113.973C61.9044 113.57 61.6973 112.981 61.6973 112.206V109.161H62.4837V112.175C62.4837 112.772 62.6174 113.208 62.8847 113.483C63.1573 113.759 63.54 113.896 64.0328 113.896C64.5309 113.896 64.9136 113.759 65.181 113.483C65.4536 113.208 65.5899 112.772 65.5899 112.175V109.161H66.3527V112.206C66.3527 112.981 66.1456 113.57 65.7314 113.973C65.3225 114.376 64.7537 114.577 64.025 114.577Z" fill="white"/>
<path d="M68.9581 114.516V109.827H67.0708V109.161H71.6239V109.827H69.7366V114.516H68.9581Z" fill="white"/>
<path d="M73.196 111.471H76.027V112.122H73.196V111.471ZM73.2668 113.85H76.4752V114.516H72.4804V109.161H76.3651V109.827H73.2668V113.85Z" fill="white"/>
<path d="M77.7486 114.516V109.161H79.8954C80.3777 109.161 80.7892 109.235 81.13 109.383C81.4707 109.531 81.7329 109.745 81.9164 110.026C82.0999 110.306 82.1916 110.64 82.1916 111.028C82.1916 111.415 82.0999 111.749 81.9164 112.03C81.7329 112.305 81.4707 112.517 81.13 112.665C80.7892 112.813 80.3777 112.887 79.8954 112.887H78.1811L78.5349 112.535V114.516H77.7486ZM81.4288 114.516L80.0291 112.573H80.8705L82.286 114.516H81.4288ZM78.5349 112.611L78.1811 112.236H79.8718C80.3751 112.236 80.7551 112.132 81.012 111.923C81.2742 111.709 81.4052 111.41 81.4052 111.028C81.4052 110.645 81.2742 110.349 81.012 110.14C80.7551 109.931 80.3751 109.827 79.8718 109.827H78.1811L78.5349 109.444V112.611Z" fill="white"/>
<path d="M85.574 116V108.84H86.2738V116H85.574Z" fill="white"/>
<path d="M92.5207 114.577C92.0961 114.577 91.7055 114.511 91.349 114.378C90.9925 114.241 90.6832 114.049 90.4211 113.805C90.1589 113.555 89.9545 113.264 89.8077 112.932C89.6609 112.601 89.5875 112.236 89.5875 111.839C89.5875 111.441 89.6609 111.076 89.8077 110.745C89.9545 110.413 90.1589 110.125 90.4211 109.88C90.6884 109.63 91.0004 109.439 91.3569 109.307C91.7134 109.169 92.1065 109.1 92.5364 109.1C92.9716 109.1 93.37 109.169 93.7317 109.307C94.0935 109.444 94.4002 109.651 94.6518 109.926L94.1642 110.4C93.9388 110.186 93.6924 110.031 93.425 109.934C93.1629 109.832 92.8772 109.781 92.5679 109.781C92.2533 109.781 91.9598 109.832 91.6871 109.934C91.4198 110.036 91.1865 110.179 90.9873 110.362C90.7933 110.546 90.6413 110.765 90.5312 111.02C90.4263 111.27 90.3739 111.543 90.3739 111.839C90.3739 112.129 90.4263 112.402 90.5312 112.657C90.6413 112.907 90.7933 113.126 90.9873 113.315C91.1865 113.499 91.4198 113.641 91.6871 113.743C91.9545 113.845 92.2455 113.896 92.56 113.896C92.8536 113.896 93.1341 113.853 93.4015 113.766C93.6741 113.674 93.9257 113.524 94.1564 113.315L94.6046 113.896C94.332 114.121 94.0122 114.292 93.6452 114.409C93.2835 114.521 92.9087 114.577 92.5207 114.577ZM93.8497 113.797V111.808H94.6046V113.896L93.8497 113.797Z" fill="white"/>
<path d="M95.2767 114.516L97.7695 109.161H98.548L101.049 114.516H100.223L97.9975 109.59H98.3121L96.0866 114.516H95.2767ZM96.3383 113.177L96.5506 112.565H99.6489L99.877 113.177H96.3383Z" fill="white"/>
<path d="M101.87 114.516V109.161H102.515L104.984 113.208H104.638L107.076 109.161H107.721L107.728 114.516H106.973L106.966 110.316H107.146L104.976 113.866H104.614L102.428 110.316H102.625V114.516H101.87Z" fill="white"/>
<path d="M109.38 114.516V109.161H110.167V114.516H109.38Z" fill="white"/>
<path d="M111.815 114.516V109.161H112.46L116.101 113.56H115.762V109.161H116.549V114.516H115.904L112.263 110.117H112.601V114.516H111.815Z" fill="white"/>
<path d="M120.681 114.577C120.257 114.577 119.866 114.511 119.51 114.378C119.153 114.241 118.844 114.049 118.582 113.805C118.32 113.555 118.115 113.264 117.968 112.932C117.822 112.601 117.748 112.236 117.748 111.839C117.748 111.441 117.822 111.076 117.968 110.745C118.115 110.413 118.32 110.125 118.582 109.88C118.849 109.63 119.161 109.439 119.518 109.307C119.874 109.169 120.267 109.1 120.697 109.1C121.132 109.1 121.531 109.169 121.892 109.307C122.254 109.444 122.561 109.651 122.813 109.926L122.325 110.4C122.1 110.186 121.853 110.031 121.586 109.934C121.324 109.832 121.038 109.781 120.729 109.781C120.414 109.781 120.12 109.832 119.848 109.934C119.58 110.036 119.347 110.179 119.148 110.362C118.954 110.546 118.802 110.765 118.692 111.02C118.587 111.27 118.535 111.543 118.535 111.839C118.535 112.129 118.587 112.402 118.692 112.657C118.802 112.907 118.954 113.126 119.148 113.315C119.347 113.499 119.58 113.641 119.848 113.743C120.115 113.845 120.406 113.896 120.721 113.896C121.014 113.896 121.295 113.853 121.562 113.766C121.835 113.674 122.086 113.524 122.317 113.315L122.765 113.896C122.493 114.121 122.173 114.292 121.806 114.409C121.444 114.521 121.069 114.577 120.681 114.577ZM122.01 113.797V111.808H122.765V113.896L122.01 113.797Z" fill="white"/>
<path d="M126.383 116V108.84H127.083V116H126.383Z" fill="white"/>
<path d="M130.845 114.516V109.161H131.489L133.959 113.208H133.613L136.05 109.161H136.695L136.703 114.516H135.948L135.94 110.316H136.121L133.951 113.866H133.589L131.403 110.316H131.6V114.516H130.845Z" fill="white"/>
<path d="M139.959 114.577C139.54 114.577 139.139 114.516 138.756 114.394C138.373 114.266 138.072 114.103 137.852 113.904L138.143 113.307C138.353 113.486 138.62 113.634 138.945 113.751C139.27 113.868 139.608 113.927 139.959 113.927C140.279 113.927 140.539 113.891 140.738 113.82C140.937 113.748 141.084 113.652 141.178 113.529C141.273 113.402 141.32 113.259 141.32 113.101C141.32 112.917 141.257 112.769 141.131 112.657C141.01 112.545 140.851 112.456 140.651 112.389C140.457 112.318 140.242 112.257 140.007 112.206C139.771 112.155 139.532 112.096 139.291 112.03C139.055 111.958 138.837 111.869 138.638 111.762C138.444 111.655 138.287 111.512 138.166 111.334C138.046 111.15 137.986 110.916 137.986 110.63C137.986 110.355 138.059 110.102 138.206 109.873C138.358 109.638 138.588 109.452 138.898 109.314C139.212 109.171 139.611 109.1 140.093 109.1C140.413 109.1 140.73 109.141 141.045 109.222C141.359 109.304 141.632 109.421 141.862 109.574L141.603 110.186C141.367 110.033 141.118 109.924 140.856 109.857C140.594 109.786 140.339 109.75 140.093 109.75C139.784 109.75 139.529 109.789 139.33 109.865C139.131 109.942 138.984 110.043 138.89 110.171C138.801 110.298 138.756 110.441 138.756 110.599C138.756 110.788 138.816 110.938 138.937 111.051C139.063 111.163 139.223 111.252 139.417 111.318C139.616 111.385 139.834 111.446 140.069 111.502C140.305 111.553 140.541 111.612 140.777 111.678C141.018 111.744 141.236 111.831 141.43 111.938C141.629 112.045 141.789 112.188 141.91 112.366C142.03 112.545 142.09 112.774 142.09 113.055C142.09 113.325 142.014 113.578 141.862 113.812C141.71 114.042 141.474 114.228 141.155 114.371C140.84 114.508 140.442 114.577 139.959 114.577Z" fill="white"/>
<path d="M143.239 114.516V109.161H145.386C145.868 109.161 146.28 109.235 146.621 109.383C146.962 109.531 147.224 109.745 147.407 110.026C147.591 110.306 147.682 110.64 147.682 111.028C147.682 111.415 147.591 111.749 147.407 112.03C147.224 112.305 146.962 112.519 146.621 112.672C146.28 112.82 145.868 112.894 145.386 112.894H143.672L144.026 112.535V114.516H143.239ZM144.026 112.611L143.672 112.229H145.363C145.866 112.229 146.246 112.124 146.503 111.915C146.765 111.706 146.896 111.41 146.896 111.028C146.896 110.645 146.765 110.349 146.503 110.14C146.246 109.931 145.866 109.827 145.363 109.827H143.672L144.026 109.444V112.611Z" fill="white"/>
</g>
<defs>
<filter id="filter0_dd_1_58" x="0" y="-19" width="184" height="209" filterUnits="userSpaceOnUse" color-interpolation-filters="sRGB">
<feFlood flood-opacity="0" result="BackgroundImageFix"/>
<feColorMatrix in="SourceAlpha" type="matrix" values="0 0 0 0 0 0 0 0 0 0 0 0 0 0 0 0 0 0 127 0" result="hardAlpha"/>
<feOffset dx="7" dy="6"/>
<feGaussianBlur stdDeviation="6.5"/>
<feComposite in2="hardAlpha" operator="out"/>
<feColorMatrix type="matrix" values="0 0 0 0 0 0 0 0 0 0 0 0 0 0 0 0 0 0 0.15 0"/>
<feBlend mode="normal" in2="BackgroundImageFix" result="effect1_dropShadow_1_58"/>
<feColorMatrix in="SourceAlpha" type="matrix" values="0 0 0 0 0 0 0 0 0 0 0 0 0 0 0 0 0 0 127 0" result="hardAlpha"/>
<feOffset dx="-7" dy="-6"/>
<feGaussianBlur stdDeviation="6.5"/>
<feComposite in2="hardAlpha" operator="out"/>
<feColorMatrix type="matrix" values="0 0 0 0 0 0 0 0 0 0 0 0 0 0 0 0 0 0 0.15 0"/>
<feBlend mode="normal" in2="effect1_dropShadow_1_58" result="effect2_dropShadow_1_58"/>
<feBlend mode="normal" in="SourceGraphic" in2="effect2_dropShadow_1_58" result="shape"/>
</filter>
</defs>
</svg>
