<svg width="32" height="32" viewBox="0 0 32 32" fill="none" xmlns="http://www.w3.org/2000/svg">
<rect y="-0.00012207" width="32" height="32" rx="16" fill="#219AFA"/>
<path d="M14.846 21.4108L19.7415 16.5154C19.8479 16.4089 19.9231 16.2936 19.9671 16.1695C20.0118 16.0453 20.0341 15.9123 20.0341 15.7704C20.0341 15.6285 20.0118 15.4955 19.9671 15.3713C19.9231 15.2472 19.8479 15.1319 19.7415 15.0254L14.846 10.13C14.6509 9.93492 14.4026 9.83737 14.1011 9.83737C13.7996 9.83737 13.5512 9.93492 13.3561 10.13C13.161 10.3251 13.0635 10.5735 13.0635 10.875C13.0635 11.1765 13.161 11.4248 13.3561 11.6199L17.5066 15.7704L13.3561 19.9209C13.161 20.116 13.0635 20.3643 13.0635 20.6658C13.0635 20.9673 13.161 21.2157 13.3561 21.4108C13.5512 21.6059 13.7996 21.7034 14.1011 21.7034C14.4026 21.7034 14.6509 21.6059 14.846 21.4108Z" fill="white"/>
</svg>
