<svg width="32" height="32" viewBox="0 0 32 32" fill="none" xmlns="http://www.w3.org/2000/svg">
<rect y="-0.00012207" width="32" height="32" rx="16" fill="#219AFA"/>
<path d="M17.6125 10.1302L12.7171 15.0256C12.6107 15.132 12.5355 15.2473 12.4915 15.3715C12.4468 15.4956 12.4244 15.6287 12.4244 15.7706C12.4244 15.9125 12.4468 16.0455 12.4915 16.1696C12.5355 16.2938 12.6107 16.4091 12.7171 16.5155L17.6125 21.4109C17.8076 21.606 18.0559 21.7036 18.3575 21.7036C18.659 21.7036 18.9073 21.606 19.1024 21.4109C19.2975 21.2158 19.3951 20.9675 19.3951 20.666C19.3951 20.3644 19.2975 20.1161 19.1024 19.921L14.952 15.7706L19.1024 11.6201C19.2975 11.425 19.3951 11.1767 19.3951 10.8751C19.3951 10.5736 19.2975 10.3253 19.1024 10.1302C18.9073 9.93509 18.659 9.83753 18.3575 9.83753C18.0559 9.83753 17.8076 9.93509 17.6125 10.1302Z" fill="white"/>
</svg>
