<svg width="32" height="32" viewBox="0 0 32 32" fill="none" xmlns="http://www.w3.org/2000/svg">
<path d="M13.7484 10.1301L18.6438 15.0255C18.7502 15.1319 18.8254 15.2472 18.8694 15.3714C18.9141 15.4955 18.9365 15.6285 18.9365 15.7704C18.9365 15.9123 18.9141 16.0454 18.8694 16.1695C18.8254 16.2937 18.7502 16.409 18.6438 16.5154L13.7484 21.4108C13.5533 21.6059 13.305 21.7035 13.0034 21.7035C12.7019 21.7035 12.4536 21.6059 12.2585 21.4108C12.0634 21.2157 11.9658 20.9674 11.9658 20.6658C11.9658 20.3643 12.0634 20.116 12.2585 19.9209L16.4089 15.7704L12.2585 11.62C12.0634 11.4249 11.9658 11.1766 11.9658 10.875C11.9658 10.5735 12.0634 10.3252 12.2585 10.1301C12.4536 9.93497 12.7019 9.83741 13.0034 9.83741C13.305 9.83741 13.5533 9.93497 13.7484 10.1301Z" fill="black"/>
<rect x="-0.456094" y="0.456094" width="31.0878" height="31.0878" rx="15.5439" transform="matrix(-1 0 0 1 31.0878 -0.00012207)" stroke="black" stroke-width="0.912188"/>
</svg>
