<svg width="32" height="32" viewBox="0 0 32 32" fill="none" xmlns="http://www.w3.org/2000/svg">
<path d="M17.154 21.4108L12.2585 16.5154C12.1521 16.4089 12.0769 16.2936 12.0329 16.1695C11.9882 16.0453 11.9659 15.9123 11.9659 15.7704C11.9659 15.6285 11.9882 15.4955 12.0329 15.3713C12.0769 15.2472 12.1521 15.1319 12.2585 15.0254L17.154 10.13C17.3491 9.93492 17.5974 9.83737 17.8989 9.83737C18.2004 9.83737 18.4488 9.93492 18.6439 10.13C18.839 10.3251 18.9365 10.5735 18.9365 10.875C18.9365 11.1765 18.839 11.4248 18.6439 11.6199L14.4934 15.7704L18.6439 19.9209C18.839 20.116 18.9365 20.3643 18.9365 20.6658C18.9365 20.9673 18.839 21.2157 18.6439 21.4108C18.4488 21.6059 18.2004 21.7034 17.8989 21.7034C17.5974 21.7034 17.3491 21.6059 17.154 21.4108Z" fill="black"/>
<rect x="-0.456094" y="0.456094" width="31.0878" height="31.0878" rx="15.5439" transform="matrix(-1 0 0 1 31.0878 -0.00012207)" stroke="black" stroke-width="0.912188"/>
</svg>
