<svg width="42" height="42" viewBox="0 0 42 42" fill="none" xmlns="http://www.w3.org/2000/svg">
<rect width="42" height="42" rx="21" fill="white"/>
<g clip-path="url(#clip0_1_74)">
<path d="M29.891 11.006L29.997 11L30.127 11.008L30.217 11.024L30.34 11.059L30.447 11.105L30.547 11.162L30.637 11.229L30.719 11.304L30.771 11.363L30.853 11.479L30.905 11.575C30.952 11.675 30.982 11.781 30.995 11.891L31 11.997C31 12.072 30.992 12.146 30.976 12.217L30.941 12.34L24.409 30.417C24.2852 30.6866 24.0866 30.9149 23.8368 31.075C23.5871 31.2351 23.2966 31.3201 23 31.32C22.7328 31.3208 22.47 31.2525 22.2371 31.1216C22.0042 30.9907 21.8092 30.8017 21.671 30.573L21.606 30.446L18.254 23.744L11.584 20.408C11.3372 20.2951 11.1244 20.1194 10.9668 19.8985C10.8092 19.6775 10.7124 19.4191 10.686 19.149L10.68 19C10.68 18.44 10.981 17.928 11.521 17.63L11.661 17.56L29.678 11.054L29.784 11.024L29.891 11.006Z" fill="#219AFA"/>
</g>
<defs>
<clipPath id="clip0_1_74">
<rect width="24" height="24" fill="white" transform="translate(9 9)"/>
</clipPath>
</defs>
</svg>
