<svg width="112" height="61" viewBox="0 0 112 61" fill="none" xmlns="http://www.w3.org/2000/svg">
<path d="M88.0399 0.345921C83.711 1.1229 78.4942 3.89783 75.2752 7.11675C66.0625 16.3295 65.9515 31.6471 74.9977 40.7489C84.266 50.0727 99.9721 50.3502 109.185 41.3594L111.571 38.973L108.241 35.6985L104.967 32.3686L102.414 34.5886C99.4726 37.197 96.8087 38.085 92.1468 38.085C88.0399 38.085 85.376 36.864 82.5456 33.7561C80.1036 31.0367 79.1046 28.2062 79.1046 23.9328C79.1046 19.5484 80.0481 16.9955 82.6011 14.3871C85.709 11.1127 88.3174 10.0582 93.2013 10.0582C96.8087 10.0582 97.7522 10.2802 100.305 11.7231C101.97 12.6111 103.746 13.8876 104.246 14.6091L105.244 15.83L107.131 13.7766C108.186 12.6666 109.629 11.0572 110.35 10.1692L111.682 8.67072L110.35 7.22775C105.355 1.84438 95.9207 -1.04154 88.0399 0.345921Z" fill="white"/>
<path d="M-6.10352e-05 24.1736V47.483H5.27231H10.5447V37.7708V28.0585H30.039L29.9965 19.6226L12.3761 19.4562L10.5447 19.1232V10.0215V0.864197H5.27231H-6.10352e-05V24.1736Z" fill="white"/>
<path d="M30.6902 28.0597C51.3912 28.0597 54.4436 28.3372 55.4981 30.2797C56.6081 32.2776 56.1641 35.552 54.6101 36.995C53.2782 38.216 52.6677 38.3269 46.5628 38.5489L39.9585 38.7154V35.33V31.9446H34.9636H29.9688V39.7699V47.5952L43.1774 47.3177C57.6071 47.0402 59.161 46.7627 62.6574 43.7658C65.5989 41.2684 66.8198 37.994 66.4868 33.4431C66.2093 29.0587 64.3779 26.2838 60.5485 24.5078L57.9401 23.2868L60.1045 21.7884C64.9884 18.292 65.7099 11.2991 61.7695 5.97126C58.828 1.97536 53.9441 0.865391 39.8475 0.865391H29.9688V8.3577V15.85H34.9636H39.9585V12.7421V9.63417L45.5084 9.85616C50.3367 10.0227 51.2247 10.2447 52.2792 11.2991C53.9996 13.0196 53.9996 16.516 52.2792 18.181C51.0597 19.4559 50.8921 19.4574 32.6429 19.6233L32.5772 19.6239H29.9688V28.0597H30.6902Z" fill="white"/>
<path d="M2.90958 59.5771C2.49018 59.5771 2.10223 59.5109 1.74573 59.3783C1.39448 59.2406 1.0878 59.0493 0.825669 58.8045C0.568785 58.5547 0.366947 58.264 0.220156 57.9325C0.073365 57.601 -3.05176e-05 57.2364 -3.05176e-05 56.8386C-3.05176e-05 56.4408 0.073365 56.0762 0.220156 55.7447C0.366947 55.4132 0.571406 55.1251 0.833533 54.8803C1.09566 54.6304 1.40235 54.4392 1.7536 54.3066C2.11009 54.1689 2.49804 54.1001 2.91744 54.1001C3.34209 54.1001 3.73266 54.1714 4.08915 54.3142C4.45088 54.4519 4.75757 54.6585 5.00921 54.9339L4.49807 55.4158C4.28837 55.2016 4.05245 55.0435 3.79032 54.9415C3.5282 54.8344 3.24772 54.7809 2.9489 54.7809C2.63959 54.7809 2.35125 54.8319 2.08388 54.9339C1.82175 55.0358 1.5937 55.1786 1.39973 55.3622C1.20575 55.5458 1.05372 55.7651 0.943626 56.0201C0.838775 56.27 0.78635 56.5428 0.78635 56.8386C0.78635 57.1344 0.838775 57.4098 0.943626 57.6648C1.05372 57.9146 1.20575 58.1314 1.39973 58.315C1.5937 58.4986 1.82175 58.6414 2.08388 58.7433C2.35125 58.8453 2.63959 58.8963 2.9489 58.8963C3.24772 58.8963 3.5282 58.8453 3.79032 58.7433C4.05245 58.6363 4.28837 58.4731 4.49807 58.2538L5.00921 58.7357C4.75757 59.0111 4.45088 59.2202 4.08915 59.363C3.73266 59.5058 3.33947 59.5771 2.90958 59.5771Z" fill="white"/>
<path d="M8.5008 59.5771C8.0814 59.5771 7.69083 59.5083 7.3291 59.3706C6.97261 59.2329 6.6633 59.0417 6.40117 58.7969C6.13904 58.547 5.93458 58.2563 5.78779 57.9248C5.641 57.5934 5.56761 57.2313 5.56761 56.8386C5.56761 56.4459 5.641 56.0838 5.78779 55.7524C5.93458 55.4209 6.13904 55.1327 6.40117 54.888C6.6633 54.6381 6.97261 54.4443 7.3291 54.3066C7.68559 54.1689 8.07616 54.1001 8.5008 54.1001C8.92021 54.1001 9.30554 54.1689 9.65679 54.3066C10.0133 54.4392 10.3226 54.6304 10.5847 54.8803C10.8521 55.1251 11.0565 55.4132 11.1981 55.7447C11.3449 56.0762 11.4183 56.4408 11.4183 56.8386C11.4183 57.2364 11.3449 57.601 11.1981 57.9325C11.0565 58.264 10.8521 58.5547 10.5847 58.8045C10.3226 59.0493 10.0133 59.2406 9.65679 59.3783C9.30554 59.5109 8.92021 59.5771 8.5008 59.5771ZM8.5008 58.8963C8.80487 58.8963 9.08535 58.8453 9.34223 58.7433C9.60436 58.6414 9.82979 58.4986 10.0185 58.315C10.2125 58.1263 10.3619 57.907 10.4668 57.6571C10.5769 57.4072 10.6319 57.1344 10.6319 56.8386C10.6319 56.5428 10.5769 56.27 10.4668 56.0201C10.3619 55.7702 10.2125 55.5535 10.0185 55.3699C9.82979 55.1812 9.60436 55.0358 9.34223 54.9339C9.08535 54.8319 8.80487 54.7809 8.5008 54.7809C8.1915 54.7809 7.90578 54.8319 7.64365 54.9339C7.38677 55.0358 7.16134 55.1812 6.96736 55.3699C6.77339 55.5535 6.62136 55.7702 6.51126 56.0201C6.40641 56.27 6.35399 56.5428 6.35399 56.8386C6.35399 57.1344 6.40641 57.4072 6.51126 57.6571C6.62136 57.907 6.77339 58.1263 6.96736 58.315C7.16134 58.4986 7.38677 58.6414 7.64365 58.7433C7.90578 58.8453 8.1915 58.8963 8.5008 58.8963Z" fill="white"/>
<path d="M12.6202 59.516V54.1612H13.265L15.7343 58.2079H15.3883L17.826 54.1612H18.4709L18.4787 59.516H17.7238L17.716 55.3163H17.8968L15.7264 58.8657H15.3647L13.1785 55.3163H13.3751V59.516H12.6202Z" fill="white"/>
<path d="M20.1308 59.516V54.1612H22.2776C22.7599 54.1612 23.1714 54.2352 23.5122 54.3831C23.853 54.531 24.1151 54.7452 24.2986 55.0257C24.4821 55.3061 24.5738 55.6402 24.5738 56.0277C24.5738 56.4153 24.4821 56.7494 24.2986 57.0298C24.1151 57.3052 23.853 57.5194 23.5122 57.6724C23.1714 57.8203 22.7599 57.8942 22.2776 57.8942H20.5633L20.9171 57.5347V59.516H20.1308ZM20.9171 57.6112L20.5633 57.2287H22.254C22.7573 57.2287 23.1374 57.1242 23.3942 56.9151C23.6564 56.706 23.7874 56.4102 23.7874 56.0277C23.7874 55.6453 23.6564 55.3495 23.3942 55.1404C23.1374 54.9313 22.7573 54.8268 22.254 54.8268H20.5633L20.9171 54.4443V57.6112Z" fill="white"/>
<path d="M28.025 59.5771C27.3015 59.5771 26.7327 59.3757 26.3185 58.9728C25.9044 58.57 25.6973 57.9809 25.6973 57.2058V54.1612H26.4837V57.1752C26.4837 57.7718 26.6174 58.2079 26.8847 58.4833C27.1573 58.7586 27.54 58.8963 28.0328 58.8963C28.5309 58.8963 28.9136 58.7586 29.181 58.4833C29.4536 58.2079 29.5899 57.7718 29.5899 57.1752V54.1612H30.3527V57.2058C30.3527 57.9809 30.1456 58.57 29.7314 58.9728C29.3225 59.3757 28.7537 59.5771 28.025 59.5771Z" fill="white"/>
<path d="M32.9581 59.516V54.8268H31.0708V54.1612H35.6239V54.8268H33.7366V59.516H32.9581Z" fill="white"/>
<path d="M37.196 56.4714H40.027V57.1216H37.196V56.4714ZM37.2668 58.8504H40.4752V59.516H36.4804V54.1612H40.3651V54.8268H37.2668V58.8504Z" fill="white"/>
<path d="M41.7486 59.516V54.1612H43.8954C44.3777 54.1612 44.7892 54.2352 45.13 54.3831C45.4707 54.531 45.7329 54.7452 45.9164 55.0257C46.0999 55.3061 46.1916 55.6402 46.1916 56.0277C46.1916 56.4153 46.0999 56.7494 45.9164 57.0298C45.7329 57.3052 45.4707 57.5169 45.13 57.6648C44.7892 57.8126 44.3777 57.8866 43.8954 57.8866H42.1811L42.5349 57.5347V59.516H41.7486ZM45.4288 59.516L44.0291 57.573H44.8705L46.286 59.516H45.4288ZM42.5349 57.6112L42.1811 57.2364H43.8718C44.3751 57.2364 44.7551 57.1318 45.012 56.9227C45.2742 56.7086 45.4052 56.4102 45.4052 56.0277C45.4052 55.6453 45.2742 55.3495 45.012 55.1404C44.7551 54.9313 44.3751 54.8268 43.8718 54.8268H42.1811L42.5349 54.4443V57.6112Z" fill="white"/>
<path d="M49.574 61V53.84H50.2738V61H49.574Z" fill="white"/>
<path d="M56.5207 59.5771C56.0961 59.5771 55.7055 59.5109 55.349 59.3783C54.9925 59.2406 54.6832 59.0493 54.4211 58.8045C54.1589 58.5547 53.9545 58.264 53.8077 57.9325C53.6609 57.601 53.5875 57.2364 53.5875 56.8386C53.5875 56.4408 53.6609 56.0762 53.8077 55.7447C53.9545 55.4132 54.1589 55.1251 54.4211 54.8803C54.6884 54.6304 55.0004 54.4392 55.3569 54.3066C55.7134 54.1689 56.1065 54.1001 56.5364 54.1001C56.9716 54.1001 57.37 54.1689 57.7317 54.3066C58.0935 54.4443 58.4002 54.6508 58.6518 54.9262L58.1642 55.4005C57.9388 55.1863 57.6924 55.0307 57.425 54.9339C57.1629 54.8319 56.8772 54.7809 56.5679 54.7809C56.2533 54.7809 55.9598 54.8319 55.6871 54.9339C55.4198 55.0358 55.1865 55.1786 54.9873 55.3622C54.7933 55.5458 54.6413 55.7651 54.5312 56.0201C54.4263 56.27 54.3739 56.5428 54.3739 56.8386C54.3739 57.1293 54.4263 57.4021 54.5312 57.6571C54.6413 57.907 54.7933 58.1263 54.9873 58.315C55.1865 58.4986 55.4198 58.6414 55.6871 58.7433C55.9545 58.8453 56.2455 58.8963 56.56 58.8963C56.8536 58.8963 57.1341 58.853 57.4015 58.7663C57.6741 58.6745 57.9257 58.5241 58.1564 58.315L58.6046 58.8963C58.332 59.1207 58.0122 59.2916 57.6452 59.4089C57.2835 59.5211 56.9087 59.5771 56.5207 59.5771ZM57.8497 58.7969V56.808H58.6046V58.8963L57.8497 58.7969Z" fill="white"/>
<path d="M59.2767 59.516L61.7695 54.1612H62.548L65.0487 59.516H64.223L61.9975 54.5896H62.3121L60.0866 59.516H59.2767ZM60.3383 58.1773L60.5506 57.5653H63.6489L63.877 58.1773H60.3383Z" fill="white"/>
<path d="M65.8699 59.516V54.1612H66.5147L68.9839 58.2079H68.6379L71.0757 54.1612H71.7205L71.7284 59.516H70.9735L70.9656 55.3163H71.1465L68.9761 58.8657H68.6143L66.4282 55.3163H66.6248V59.516H65.8699Z" fill="white"/>
<path d="M73.3804 59.516V54.1612H74.1668V59.516H73.3804Z" fill="white"/>
<path d="M75.8148 59.516V54.1612H76.4596L80.1006 58.5598H79.7624V54.1612H80.5488V59.516H79.904L76.263 55.1174H76.6012V59.516H75.8148Z" fill="white"/>
<path d="M84.6814 59.5771C84.2568 59.5771 83.8662 59.5109 83.5097 59.3783C83.1532 59.2406 82.8439 59.0493 82.5818 58.8045C82.3197 58.5547 82.1152 58.264 81.9684 57.9325C81.8216 57.601 81.7482 57.2364 81.7482 56.8386C81.7482 56.4408 81.8216 56.0762 81.9684 55.7447C82.1152 55.4132 82.3197 55.1251 82.5818 54.8803C82.8492 54.6304 83.1611 54.4392 83.5176 54.3066C83.8741 54.1689 84.2673 54.1001 84.6972 54.1001C85.1323 54.1001 85.5307 54.1689 85.8924 54.3066C86.2542 54.4443 86.5609 54.6508 86.8125 54.9262L86.325 55.4005C86.0995 55.1863 85.8531 55.0307 85.5858 54.9339C85.3236 54.8319 85.0379 54.7809 84.7286 54.7809C84.4141 54.7809 84.1205 54.8319 83.8479 54.9339C83.5805 55.0358 83.3472 55.1786 83.148 55.3622C82.954 55.5458 82.802 55.7651 82.6919 56.0201C82.587 56.27 82.5346 56.5428 82.5346 56.8386C82.5346 57.1293 82.587 57.4021 82.6919 57.6571C82.802 57.907 82.954 58.1263 83.148 58.315C83.3472 58.4986 83.5805 58.6414 83.8479 58.7433C84.1152 58.8453 84.4062 58.8963 84.7207 58.8963C85.0143 58.8963 85.2948 58.853 85.5622 58.7663C85.8348 58.6745 86.0864 58.5241 86.3171 58.315L86.7653 58.8963C86.4927 59.1207 86.1729 59.2916 85.8059 59.4089C85.4442 59.5211 85.0694 59.5771 84.6814 59.5771ZM86.0104 58.7969V56.808H86.7653V58.8963L86.0104 58.7969Z" fill="white"/>
<path d="M90.3828 61V53.84H91.0827V61H90.3828Z" fill="white"/>
<path d="M94.8446 59.516V54.1612H95.4894L97.9587 58.2079H97.6127L100.05 54.1612H100.695L100.703 59.516H99.9482L99.9403 55.3163H100.121L97.9508 58.8657H97.5891L95.4029 55.3163H95.5995V59.516H94.8446Z" fill="white"/>
<path d="M103.959 59.5771C103.54 59.5771 103.139 59.516 102.756 59.3936C102.373 59.2661 102.072 59.1029 101.852 58.904L102.143 58.3073C102.353 58.4858 102.62 58.6337 102.945 58.751C103.27 58.8683 103.608 58.9269 103.959 58.9269C104.279 58.9269 104.539 58.8912 104.738 58.8198C104.937 58.7484 105.084 58.6515 105.178 58.5292C105.273 58.4017 105.32 58.2589 105.32 58.1008C105.32 57.9172 105.257 57.7693 105.131 57.6571C105.01 57.5449 104.851 57.4557 104.651 57.3894C104.457 57.318 104.242 57.2568 104.007 57.2058C103.771 57.1548 103.532 57.0961 103.291 57.0298C103.055 56.9584 102.837 56.8692 102.638 56.7621C102.444 56.655 102.287 56.5122 102.166 56.3337C102.046 56.1501 101.986 55.9156 101.986 55.63C101.986 55.3546 102.059 55.1021 102.206 54.8727C102.358 54.6381 102.588 54.4519 102.898 54.3142C103.212 54.1714 103.611 54.1001 104.093 54.1001C104.413 54.1001 104.73 54.1408 105.045 54.2224C105.359 54.304 105.632 54.4213 105.862 54.5743L105.603 55.1863C105.367 55.0333 105.118 54.9237 104.856 54.8574C104.594 54.786 104.339 54.7503 104.093 54.7503C103.784 54.7503 103.529 54.7885 103.33 54.865C103.131 54.9415 102.984 55.0435 102.89 55.171C102.801 55.2985 102.756 55.4413 102.756 55.5994C102.756 55.7881 102.816 55.9385 102.937 56.0507C103.063 56.1629 103.223 56.2521 103.417 56.3184C103.616 56.3847 103.834 56.4459 104.069 56.502C104.305 56.553 104.541 56.6117 104.777 56.678C105.018 56.7443 105.236 56.831 105.43 56.938C105.629 57.0451 105.789 57.1879 105.91 57.3664C106.03 57.5449 106.09 57.7744 106.09 58.0549C106.09 58.3252 106.014 58.5776 105.862 58.8122C105.71 59.0417 105.474 59.2278 105.155 59.3706C104.84 59.5083 104.442 59.5771 103.959 59.5771Z" fill="white"/>
<path d="M107.239 59.516V54.1612H109.386C109.868 54.1612 110.28 54.2352 110.621 54.3831C110.962 54.531 111.224 54.7452 111.407 55.0257C111.591 55.3061 111.682 55.6402 111.682 56.0277C111.682 56.4153 111.591 56.7494 111.407 57.0298C111.224 57.3052 110.962 57.5194 110.621 57.6724C110.28 57.8203 109.868 57.8942 109.386 57.8942H107.672L108.026 57.5347V59.516H107.239ZM108.026 57.6112L107.672 57.2287H109.363C109.866 57.2287 110.246 57.1242 110.503 56.9151C110.765 56.706 110.896 56.4102 110.896 56.0277C110.896 55.6453 110.765 55.3495 110.503 55.1404C110.246 54.9313 109.866 54.8268 109.363 54.8268H107.672L108.026 54.4443V57.6112Z" fill="white"/>
</svg>
