<svg width="30" height="30" viewBox="0 0 30 30" fill="none" xmlns="http://www.w3.org/2000/svg">
<rect x="0.0318298" width="29.0064" height="29.0064" rx="14.5032" fill="black"/>
<path d="M21.2165 10.2859C20.721 10.5009 20.197 10.643 19.6607 10.7078C20.2265 10.3698 20.6504 9.83814 20.854 9.21135C20.3223 9.52783 19.7404 9.7508 19.1334 9.87059C18.7276 9.43059 18.1873 9.13771 17.5972 9.03787C17.0071 8.93804 16.4005 9.03689 15.8726 9.31893C15.3448 9.60097 14.9254 10.0502 14.6804 10.5963C14.4353 11.1423 14.3785 11.7543 14.5187 12.3361C13.4438 12.2818 12.3923 12.0019 11.4326 11.5146C10.4729 11.0274 9.62642 10.3437 8.94817 9.50801C8.71027 9.92344 8.58527 10.3939 8.58559 10.8726C8.58474 11.3172 8.69385 11.7551 8.90318 12.1473C9.11251 12.5395 9.41558 12.8739 9.7854 13.1206C9.35556 13.1089 8.93491 12.9936 8.55922 12.7844V12.8174C8.56244 13.4403 8.78072 14.043 9.17713 14.5234C9.57354 15.0039 10.1238 15.3328 10.7347 15.4543C10.4995 15.5259 10.2553 15.5636 10.0095 15.5664C9.83938 15.5644 9.66965 15.549 9.50193 15.5202C9.6759 16.0561 10.0126 16.5243 10.4651 16.8599C10.9177 17.1955 11.4635 17.3816 12.0268 17.3925C11.0757 18.1409 9.90135 18.5493 8.69107 18.5527C8.47071 18.5534 8.25052 18.5402 8.03183 18.5132C9.26752 19.311 10.7075 19.7345 12.1784 19.7328C13.1934 19.7433 14.2004 19.5515 15.1404 19.1685C16.0805 18.7855 16.9348 18.2191 17.6535 17.5022C18.3722 16.7854 18.9408 15.9325 19.3262 14.9934C19.7116 14.0544 19.906 13.0479 19.8981 12.0329V11.6835C20.4154 11.2977 20.8615 10.8248 21.2165 10.2859Z" fill="white"/>
</svg>
